<svg width="20" height="20" viewBox="0 0 20 20" fill="none" xmlns="http://www.w3.org/2000/svg">
<path d="M3.33333 7.5C3.33333 7.03976 3.70643 6.66667 4.16667 6.66667H7.5C7.96024 6.66667 8.33333 7.03976 8.33333 7.5C8.33333 7.96024 7.96024 8.33333 7.5 8.33333H4.16667C3.70643 8.33333 3.33333 7.96024 3.33333 7.5Z" fill="#DAE0E6"/>
<path fill-rule="evenodd" clip-rule="evenodd" d="M3.33333 2.5C1.49238 2.5 0 3.99238 0 5.83333V14.1667C0 16.0076 1.49238 17.5 3.33333 17.5H16.6667C18.5076 17.5 20 16.0076 20 14.1667V5.83333C20 3.99238 18.5076 2.5 16.6667 2.5H3.33333ZM16.6667 4.16667H3.33333C2.41286 4.16667 1.66667 4.91286 1.66667 5.83333V11.6667H18.3333V5.83333C18.3333 4.91286 17.5871 4.16667 16.6667 4.16667ZM18.3333 13.3333H1.66667V14.1667C1.66667 15.0871 2.41286 15.8333 3.33333 15.8333H16.6667C17.5871 15.8333 18.3333 15.0871 18.3333 14.1667V13.3333Z" fill="#DAE0E6"/>
</svg>
