<svg width="20" height="20" viewBox="0 0 20 20" fill="none" xmlns="http://www.w3.org/2000/svg">
<path fill-rule="evenodd" clip-rule="evenodd" d="M10 17.5C14.1421 17.5 17.5 14.1421 17.5 10C17.5 5.85786 14.1421 2.5 10 2.5C5.85786 2.5 2.5 5.85786 2.5 10C2.5 14.1421 5.85786 17.5 10 17.5ZM12.3379 15.3459C14.269 14.5002 15.654 12.6389 15.8172 10.4375C15.1314 10.8115 14.2667 11.1182 13.281 11.3316C13.1569 12.8897 12.8189 14.2809 12.3379 15.3459ZM7.66208 4.65406C6.03937 5.36472 4.80229 6.79255 4.35173 8.53667C4.54475 8.71981 4.87344 8.94505 5.3736 9.16734C5.74763 9.33357 6.18378 9.48314 6.67114 9.60812C6.71545 7.67151 7.08624 5.92908 7.66208 4.65406ZM8.41716 11.5923C8.54776 12.8062 8.82099 13.8501 9.166 14.6264C9.41103 15.1777 9.65963 15.5207 9.85149 15.7033C9.91973 15.7682 9.96912 15.8028 10 15.8207C10.0309 15.8028 10.0803 15.7682 10.1485 15.7033C10.3404 15.5207 10.589 15.1777 10.834 14.6264C11.179 13.8501 11.4522 12.8062 11.5828 11.5923C11.0726 11.641 10.543 11.6667 10 11.6667C9.45698 11.6667 8.92743 11.641 8.41716 11.5923ZM6.71905 11.3316C6.84313 12.8897 7.18107 14.2809 7.66208 15.3459C5.731 14.5002 4.34604 12.6389 4.18282 10.4375C4.86859 10.8115 5.73334 11.1182 6.71905 11.3316ZM11.6664 9.908C11.1409 9.96738 10.5827 10 10 10C9.41729 10 8.85914 9.96739 8.33361 9.908C8.34455 8.0534 8.68573 6.4542 9.166 5.3736C9.41103 4.82228 9.65963 4.4793 9.85149 4.29671C9.91973 4.23177 9.96912 4.19716 10 4.1793C10.0309 4.19716 10.0803 4.23177 10.1485 4.29671C10.3404 4.4793 10.589 4.82228 10.834 5.3736C11.3143 6.4542 11.6554 8.0534 11.6664 9.908ZM13.3289 9.60812C13.2846 7.67152 12.9138 5.92908 12.3379 4.65406C13.9606 5.36472 15.1977 6.79256 15.6483 8.53668C15.4552 8.71982 15.1266 8.94505 14.6264 9.16734C14.2524 9.33357 13.8162 9.48314 13.3289 9.60812Z" fill="#DAE0E6"/>
</svg>
