<svg width="20" height="20" viewBox="0 0 20 20" fill="none" xmlns="http://www.w3.org/2000/svg">
<g clip-path="url(#clip0_207_767)">
<path fill-rule="evenodd" clip-rule="evenodd" d="M13.333 7.50004C13.333 9.34099 11.8406 10.8334 9.99967 10.8334C8.15872 10.8334 6.66634 9.34099 6.66634 7.50004C6.66634 5.65909 8.15872 4.16671 9.99967 4.16671C11.8406 4.16671 13.333 5.65909 13.333 7.50004ZM11.6663 7.50004C11.6663 8.42051 10.9201 9.16671 9.99967 9.16671C9.0792 9.16671 8.33301 8.42051 8.33301 7.50004C8.33301 6.57957 9.0792 5.83337 9.99967 5.83337C10.9201 5.83337 11.6663 6.57957 11.6663 7.50004Z" fill="#FFAE00"/>
<path fill-rule="evenodd" clip-rule="evenodd" d="M9.99967 0.833374C4.93706 0.833374 0.833008 4.93743 0.833008 10C0.833008 15.0626 4.93706 19.1667 9.99967 19.1667C15.0623 19.1667 19.1663 15.0626 19.1663 10C19.1663 4.93743 15.0623 0.833374 9.99967 0.833374ZM2.49967 10C2.49967 11.7419 3.09346 13.345 4.08966 14.6181C5.46005 12.8241 7.62156 11.6667 10.0534 11.6667C12.4537 11.6667 14.5906 12.7943 15.9634 14.5486C16.9272 13.2869 17.4997 11.7103 17.4997 10C17.4997 5.8579 14.1418 2.50004 9.99967 2.50004C5.85754 2.50004 2.49967 5.8579 2.49967 10ZM9.99967 17.5C8.20781 17.5 6.56272 16.8717 5.27273 15.8232C6.32761 14.3177 8.07555 13.3334 10.0534 13.3334C12.0067 13.3334 13.7358 14.2934 14.7945 15.7674C13.4946 16.8493 11.8231 17.5 9.99967 17.5Z" fill="#FFAE00"/>
</g>
<defs>
<clipPath id="clip0_207_767">
<rect width="20" height="20" fill="white" transform="matrix(-1 0 0 1 20 0)"/>
</clipPath>
</defs>
</svg>
