<svg width="20" height="20" viewBox="0 0 20 20" fill="none" xmlns="http://www.w3.org/2000/svg">
<path d="M10 12.6667C11.4728 12.6667 12.6667 11.4728 12.6667 10C12.6667 8.52724 11.4728 7.33333 10 7.33333C8.52724 7.33333 7.33333 8.52724 7.33333 10C7.33333 11.4728 8.52724 12.6667 10 12.6667Z" fill="#DAE0E6"/>
<path fill-rule="evenodd" clip-rule="evenodd" d="M10 2C10.4909 2 10.8889 2.39797 10.8889 2.88889V3.84079C13.6139 4.23058 15.7694 6.38605 16.1592 9.11111H17.1111C17.602 9.11111 18 9.50908 18 10C18 10.4909 17.602 10.8889 17.1111 10.8889H16.1592C15.7694 13.6139 13.6139 15.7694 10.8889 16.1592V17.1111C10.8889 17.602 10.4909 18 10 18C9.50908 18 9.11111 17.602 9.11111 17.1111V16.1592C6.38605 15.7694 4.23058 13.6139 3.84079 10.8889H2.88889C2.39797 10.8889 2 10.4909 2 10C2 9.50908 2.39797 9.11111 2.88889 9.11111H3.84079C4.23058 6.38605 6.38605 4.23058 9.11111 3.84079V2.88889C9.11111 2.39797 9.50908 2 10 2ZM5.55556 10C5.55556 7.5454 7.5454 5.55556 10 5.55556C12.4546 5.55556 14.4444 7.5454 14.4444 10C14.4444 12.4546 12.4546 14.4444 10 14.4444C7.5454 14.4444 5.55556 12.4546 5.55556 10Z" fill="#DAE0E6"/>
</svg>
